<svg width="30" height="30" viewBox="0 0 24 24" fill="none" xmlns="http://www.w3.org/2000/svg">
<path d="M3.34201 5.87526C1.90841 5.87526 0.754931 7.06168 0.804365 8.51176C0.8538 9.83002 1.92488 10.9011 3.24314 10.9505C4.69323 11 5.87966 9.8465 5.87966 8.4129V7.47364C5.87966 6.58382 6.58822 5.87526 7.47805 5.87526H8.38435C9.76852 5.87526 10.922 4.78769 10.955 3.42001C11.0044 1.9864 9.85091 0.816452 8.43378 0.799974C7.01666 0.783496 5.87966 1.96993 5.87966 3.38705V4.44165C5.87966 5.23261 5.23701 5.87526 4.44605 5.87526H3.34201Z" fill="#121212"/>
<path d="M5.87966 15.5809C5.87966 14.1473 4.69323 12.9938 3.24314 13.0433C1.92488 13.0927 0.8538 14.1638 0.804365 15.482C0.754931 16.9321 1.90841 18.1185 3.34201 18.1185H4.28127C5.17109 18.1185 5.87966 18.8271 5.87966 19.7169V20.6232C5.87966 22.0074 6.96722 23.1609 8.33491 23.1938C9.76852 23.2433 10.9385 22.0898 10.955 20.6727C10.9714 19.2555 9.785 18.1185 8.36787 18.1185H7.31326C6.52231 18.1185 5.87966 17.4759 5.87966 16.6849V15.5809Z" fill="#121212"/>
<path d="M10.197 18.8601C9.1753 17.8384 7.52748 17.8714 6.53879 18.926C5.64896 19.8982 5.64896 21.4142 6.53879 22.3699C7.52748 23.4245 9.1753 23.4575 10.197 22.4358L10.8561 21.7767C11.4823 21.1505 12.4874 21.1505 13.1136 21.7767L13.7562 22.4194C14.7285 23.3916 16.3104 23.441 17.3155 22.5017C18.3537 21.5131 18.3866 19.8817 17.3815 18.8765C16.3928 17.8714 14.7449 17.8879 13.7562 18.893L13.0147 19.6345C12.4545 20.1948 11.5482 20.1948 10.9879 19.6345L10.197 18.8601Z" fill="#121212"/>
<path d="M15.5853 18.1185C14.1517 18.1185 12.9983 19.305 13.0477 20.7551C13.0971 22.0733 14.1682 23.1444 15.4865 23.1938C16.9365 23.2433 18.123 22.0898 18.123 20.6562V19.7169C18.123 18.8271 18.8315 18.1185 19.7214 18.1185H20.6277C22.0118 18.1185 23.1653 17.031 23.1983 15.6633C23.2477 14.2297 22.0942 13.0597 20.6771 13.0433C19.26 13.0268 18.123 14.2132 18.123 15.6303V16.6849C18.123 17.4759 17.4803 18.1185 16.6894 18.1185H15.5853Z" fill="#121212"/>
<path d="M1.54589 13.7848C0.524236 14.8064 0.557192 16.4542 1.6118 17.4429C2.58401 18.3328 4.10001 18.3328 5.05575 17.4429C6.11035 16.4542 6.14331 14.8064 5.12166 13.7848L4.46253 13.1257C3.83636 12.4995 3.83636 11.4943 4.46253 10.8681L5.10518 10.2255C6.0774 9.25328 6.12683 7.67138 5.18757 6.66621C4.19888 5.62808 2.56754 5.59513 1.56236 6.6003C0.557192 7.58899 0.57367 9.23681 1.57884 10.2255L2.32036 10.967C2.88062 11.5273 2.88062 12.4336 2.32036 12.9938L1.54589 13.7848Z" fill="#121212"/>
<path d="M18.8645 13.7848C17.8428 14.8064 17.8758 16.4542 18.9304 17.4429C19.9026 18.3328 21.4186 18.3328 22.3744 17.4429C23.429 16.4542 23.4619 14.8064 22.4403 13.7848L21.7811 13.1257C21.155 12.4995 21.155 11.4943 21.7811 10.8681L22.4238 10.2255C23.396 9.25328 23.4454 7.67138 22.5062 6.66621C21.5175 5.62808 19.8861 5.59513 18.881 6.6003C17.8758 7.58899 17.8923 9.23681 18.8975 10.2255L19.639 10.967C20.1992 11.5273 20.1992 12.4336 19.639 12.9938L18.8645 13.7848Z" fill="#121212"/>
<path d="M15.5853 5.87526C16.9868 5.87526 18.123 4.73912 18.123 3.33762C18.123 1.93612 16.9868 0.799975 15.5853 0.799975C14.1838 0.799975 13.0477 1.93612 13.0477 3.33762C13.0477 4.73912 14.1838 5.87526 15.5853 5.87526Z" fill="#121212"/>
</svg>