<svg width="18" height="18" viewBox="0 0 18 18" fill="none" xmlns="http://www.w3.org/2000/svg">
<path d="M2.68572 4.53386C1.64039 4.53386 0.799311 5.39896 0.835357 6.45631C0.871403 7.41754 1.6524 8.19854 2.61363 8.23458C3.67098 8.27063 4.53609 7.42955 4.53609 6.38422V5.69935C4.53609 5.05052 5.05275 4.53386 5.70158 4.53386H6.36243C7.37172 4.53386 8.21279 3.74084 8.23683 2.74357C8.27287 1.69824 7.4318 0.845147 6.39847 0.833131C5.36515 0.821116 4.53609 1.68622 4.53609 2.71954V3.48852C4.53609 4.06526 4.06749 4.53386 3.49075 4.53386H2.68572Z" fill="#0CF274"/>
<path d="M4.53609 11.6109C4.53609 10.5656 3.67098 9.72449 2.61363 9.76053C1.6524 9.79658 0.871403 10.5776 0.835357 11.5388C0.799311 12.5962 1.64039 13.4613 2.68572 13.4613H3.3706C4.01943 13.4613 4.53609 13.9779 4.53609 14.6267V15.2876C4.53609 16.2969 5.3291 17.138 6.32638 17.162C7.37172 17.198 8.22481 16.357 8.23682 15.3236C8.24884 14.2903 7.38373 13.4613 6.35041 13.4613H5.58143C5.00469 13.4613 4.53609 12.9927 4.53609 12.4159V11.6109Z" fill="#0CF274"/>
<path d="M7.68412 14.0019C6.93916 13.257 5.73763 13.281 5.01671 14.05C4.36788 14.7589 4.36788 15.8643 5.01671 16.5612C5.73763 17.3302 6.93916 17.3542 7.68412 16.6093L8.16473 16.1287C8.62132 15.6721 9.35425 15.6721 9.81084 16.1287L10.2794 16.5973C10.9883 17.3062 12.1418 17.3422 12.8748 16.6573C13.6317 15.9364 13.6558 14.7469 12.9228 14.014C12.2019 13.281 11.0004 13.293 10.2794 14.026L9.73875 14.5667C9.33022 14.9752 8.66938 14.9752 8.26086 14.5667L7.68412 14.0019Z" fill="#0CF274"/>
<path d="M11.6131 13.4613C10.5678 13.4613 9.72673 14.3264 9.76278 15.3837C9.79882 16.3449 10.5798 17.1259 11.5411 17.162C12.5984 17.198 13.4635 16.357 13.4635 15.3116V14.6267C13.4635 13.9779 13.9802 13.4613 14.629 13.4613H15.2898C16.2991 13.4613 17.1402 12.6682 17.1642 11.671C17.2003 10.6256 16.3592 9.77255 15.3259 9.76053C14.2926 9.74852 13.4635 10.6136 13.4635 11.6469V12.4159C13.4635 12.9927 12.9949 13.4613 12.4182 13.4613H11.6131Z" fill="#0CF274"/>
<path d="M1.37605 10.3012C0.631096 11.0462 0.655126 12.2477 1.42411 12.9686C2.13302 13.6175 3.23843 13.6175 3.93532 12.9686C4.70431 12.2477 4.72834 11.0462 3.98338 10.3012L3.50277 9.82061C3.04619 9.36403 3.04619 8.63109 3.50277 8.17451L3.97137 7.70591C4.68028 6.997 4.71632 5.84353 4.03145 5.11059C3.31052 4.35363 2.121 4.3296 1.38806 5.06253C0.655126 5.78345 0.667142 6.98499 1.40008 7.70591L1.94077 8.2466C2.34929 8.65512 2.34929 9.31596 1.94077 9.72449L1.37605 10.3012Z" fill="#0CF274"/>
<path d="M14.0042 10.3012C13.2592 11.0462 13.2833 12.2477 14.0523 12.9686C14.7612 13.6175 15.8666 13.6175 16.5635 12.9686C17.3325 12.2477 17.3565 11.0462 16.6115 10.3012L16.1309 9.82061C15.6743 9.36403 15.6743 8.63109 16.1309 8.17451L16.5995 7.70591C17.3084 6.997 17.3445 5.84353 16.6596 5.11059C15.9387 4.35363 14.7492 4.3296 14.0162 5.06253C13.2833 5.78345 13.2953 6.98499 14.0282 7.70591L14.5689 8.2466C14.9774 8.65512 14.9774 9.31596 14.5689 9.72449L14.0042 10.3012Z" fill="#0CF274"/>
<path d="M11.6131 4.53386C12.6351 4.53386 13.4635 3.70542 13.4635 2.68349C13.4635 1.66157 12.6351 0.833132 11.6131 0.833132C10.5912 0.833132 9.76278 1.66157 9.76278 2.68349C9.76278 3.70542 10.5912 4.53386 11.6131 4.53386Z" fill="#0CF274"/>
</svg>