<svg width="244" height="22" viewBox="0 0 244 22" fill="none" xmlns="http://www.w3.org/2000/svg">
<g clip-path="url(#clip0_210_1471)">
<path d="M19.6853 14.2123C19.6853 14.2123 19.6934 14.1759 19.6934 14.1556C19.6974 14.107 19.7015 14.0624 19.7055 14.0138C19.7055 13.9895 19.7096 13.9652 19.7096 13.9409C19.7096 13.9409 19.7096 13.9328 19.7096 13.9288C19.7096 13.8842 19.7096 13.8356 19.7096 13.791C19.7096 13.7586 19.7096 13.7303 19.7096 13.6979C19.7096 13.6817 19.7055 13.6695 19.7055 13.6533C19.6529 13.1146 19.4098 12.6326 19.0453 12.2761L18.4782 11.709C17.9273 11.1582 17.9273 10.2711 18.4782 9.72019L19.0372 9.16121C19.8959 8.30248 19.9445 6.90907 19.1101 6.02604C18.2473 5.1106 16.8053 5.09035 15.9142 5.96528C15.0271 6.84021 15.0514 8.28223 15.9304 9.16526L16.5906 9.82551C17.0848 10.3197 17.0848 11.1176 16.5906 11.6118L15.9061 12.2964C15.4686 12.7338 15.2499 13.3131 15.2539 13.8883C15.2539 13.8964 15.2539 13.9045 15.2539 13.9126V14.8442C15.2539 15.5409 14.6868 16.108 13.9901 16.108H13.018C12.3942 16.108 11.8311 16.3632 11.4261 16.7763C11.422 16.7804 11.418 16.7844 11.4099 16.7885L10.7496 17.4487C10.2555 17.9429 9.45749 17.9429 8.96332 17.4487L8.27877 16.7642C7.8413 16.3267 7.26206 16.108 6.68688 16.112C6.67878 16.112 6.67068 16.112 6.66257 16.112H5.73094C5.03423 16.112 4.46715 15.545 4.46715 14.8483V13.8761C4.46715 13.8478 4.46715 13.8235 4.4631 13.7951C4.4631 13.7546 4.4631 13.7141 4.455 13.6776C4.455 13.6331 4.44284 13.5926 4.43879 13.548C4.43474 13.5197 4.43069 13.4913 4.42664 13.4589C4.41854 13.4103 4.40639 13.3617 4.39424 13.3131C4.39019 13.2888 4.38208 13.2685 4.37803 13.2442C4.36183 13.1916 4.34563 13.143 4.32538 13.0903C4.31727 13.07 4.31322 13.0538 4.30512 13.0336C4.28487 12.9809 4.26057 12.9283 4.23626 12.8797C4.22816 12.8635 4.22411 12.8513 4.21601 12.8351C4.18766 12.7784 4.15525 12.7257 4.12285 12.6731C4.11474 12.665 4.11069 12.6528 4.10259 12.6447C4.06209 12.584 4.02158 12.5273 3.97702 12.4746C3.97702 12.4746 3.97702 12.4705 3.97297 12.4665C3.90816 12.3895 3.8393 12.3126 3.76639 12.2437L3.23171 11.709C2.68083 11.1582 2.68083 10.2711 3.23171 9.72019L3.7907 9.16121C3.7907 9.16121 3.80285 9.14906 3.8069 9.14095C4.21601 8.73589 4.4712 8.17691 4.4712 7.55312V6.72679C4.4712 5.94908 5.09904 5.32124 5.87676 5.32124H6.66662C7.88181 5.32124 8.89851 4.36934 8.93496 3.15416C8.97142 1.89847 7.96687 0.86557 6.71523 0.857469C5.46765 0.849368 4.46715 1.88227 4.46715 3.12986V4.0615C4.46715 4.7582 3.90006 5.32529 3.20336 5.32529H2.23121C2.20691 5.32529 2.18261 5.32529 2.1583 5.32529C2.11375 5.32529 2.06919 5.32529 2.02868 5.33339C1.99223 5.33339 1.95982 5.34149 1.92337 5.34554C1.88691 5.34959 1.84641 5.35769 1.80995 5.36174C1.7735 5.36984 1.73704 5.37794 1.70058 5.38604C1.66413 5.39415 1.62767 5.40225 1.59527 5.4144C1.55881 5.42655 1.52641 5.4387 1.48995 5.45085C1.4535 5.46301 1.42109 5.47516 1.38464 5.49136C1.35223 5.50351 1.31983 5.51971 1.28742 5.53592C1.25097 5.55212 1.21856 5.56832 1.18616 5.58857C1.15375 5.60478 1.1254 5.62503 1.09299 5.64123C1.06059 5.66149 1.02818 5.68174 0.99578 5.70199C0.963375 5.72224 0.935021 5.74655 0.906667 5.7668C0.878312 5.78705 0.849958 5.81136 0.817553 5.83566C0.785149 5.85996 0.756794 5.88832 0.724389 5.91667C0.704136 5.93288 0.687934 5.94908 0.667681 5.96528C0.65958 5.97338 0.655529 5.97743 0.651479 5.98553C0.619074 6.01794 0.590719 6.05034 0.562365 6.08275C0.542112 6.10705 0.521859 6.12731 0.501606 6.15161C0.469201 6.19211 0.436797 6.23667 0.404392 6.28528C0.396291 6.29743 0.384139 6.31363 0.376038 6.32578C0.120849 6.70249 -0.016871 7.15616 -0.000668622 7.64628C0.0195844 8.15666 0.214013 8.62653 0.521859 8.99108C0.570466 9.05184 0.623124 9.10855 0.679833 9.16526L1.34008 9.82551C1.83425 10.3197 1.83425 11.1176 1.34008 11.6118L0.655529 12.2964C0.619074 12.3328 0.582618 12.3733 0.550213 12.4138C0.538062 12.426 0.52996 12.4381 0.517809 12.4503C0.485404 12.4908 0.45705 12.5273 0.428695 12.5678C0.416543 12.584 0.400341 12.6042 0.388189 12.6204C0.363886 12.6569 0.339582 12.6974 0.315278 12.7379C0.303127 12.7622 0.286924 12.7824 0.274772 12.8068C0.254519 12.8432 0.238317 12.8797 0.218064 12.9161C0.201862 12.9445 0.18971 12.9769 0.177558 13.0052C0.165406 13.0376 0.149204 13.07 0.141103 13.1024C0.128951 13.1389 0.116799 13.1754 0.104647 13.2159C0.0965459 13.2442 0.0884447 13.2726 0.0803435 13.3009C0.0681916 13.3414 0.0600904 13.386 0.0519892 13.4265C0.0479386 13.4548 0.0398374 13.4832 0.0357868 13.5075C0.0276856 13.548 0.023635 13.5926 0.0195844 13.6371C0.0195844 13.6695 0.0114832 13.6979 0.0114832 13.7303C0.0114832 13.7465 0.0114832 13.7627 0.00743258 13.7789C0.00743258 13.7991 0.00743258 13.8194 0.00743258 13.8397C0.00743258 13.8802 0.00743258 13.9247 0.00743258 13.9652C0.00743258 13.9976 0.00743258 14.03 0.0155338 14.0624C0.0155338 14.107 0.023635 14.1516 0.0317362 14.1961C0.0357868 14.2245 0.0398374 14.2569 0.0479386 14.2852C0.0560398 14.3298 0.0681916 14.3743 0.0803435 14.4229C0.0884447 14.4472 0.0924953 14.4756 0.100596 14.4999C0.116799 14.5485 0.133001 14.5971 0.149204 14.6457C0.157305 14.666 0.165406 14.6862 0.173507 14.7065C0.19376 14.7591 0.218064 14.8077 0.242368 14.8604C0.250469 14.8766 0.25857 14.8888 0.262621 14.905C0.290975 14.9576 0.319329 15.0103 0.351734 15.0589C0.359835 15.071 0.363886 15.0791 0.371987 15.0913C0.404392 15.1439 0.440847 15.1926 0.481353 15.2412C0.489454 15.2493 0.497556 15.2614 0.501606 15.2695C0.542112 15.3181 0.582618 15.3667 0.627175 15.4113C0.635276 15.4194 0.643377 15.4275 0.651479 15.4356C0.675782 15.4639 0.700086 15.4882 0.72844 15.5166C0.748693 15.5369 0.772997 15.5531 0.7973 15.5733C0.910717 15.6705 1.02818 15.7515 1.15375 15.8204C1.15375 15.8204 1.16185 15.8204 1.16591 15.8245C1.22261 15.8569 1.28337 15.8852 1.34413 15.9136C1.35628 15.9176 1.36438 15.9217 1.37654 15.9257C1.42919 15.95 1.48185 15.9703 1.53856 15.9865C1.55476 15.9905 1.57502 15.9986 1.59122 16.0027C1.63983 16.0189 1.68843 16.031 1.74109 16.0432C1.76539 16.0472 1.78565 16.0553 1.80995 16.0594C1.85856 16.0675 1.90717 16.0756 1.95982 16.0837C1.98413 16.0837 2.00438 16.0918 2.02868 16.0918C2.10159 16.0999 2.17451 16.1039 2.24742 16.1039H3.07374C3.85146 16.1039 4.4793 16.7318 4.4793 17.5095V18.2994C4.4793 18.2994 4.4793 18.3115 4.4793 18.3156C4.47525 18.8665 4.66968 19.4214 5.07069 19.8507C5.38663 20.191 5.78359 20.4097 6.20081 20.5069C6.25751 20.5191 6.31422 20.5313 6.37093 20.5394C6.39118 20.5394 6.40739 20.5475 6.42764 20.5475C6.47625 20.5515 6.5208 20.5556 6.56941 20.5596C6.59371 20.5596 6.61802 20.5637 6.64232 20.5637C6.64232 20.5637 6.65042 20.5637 6.65447 20.5637C6.69903 20.5637 6.74764 20.5637 6.79219 20.5637C6.8246 20.5637 6.85295 20.5637 6.88536 20.5637C6.90156 20.5637 6.91371 20.5596 6.92991 20.5596C7.46864 20.5069 7.95067 20.2639 8.30712 19.8994L8.8742 19.3323C9.42509 18.7814 10.3122 18.7814 10.8631 19.3323L11.422 19.8913C11.4787 19.948 11.5354 19.9966 11.5962 20.0452C11.9648 20.353 12.4306 20.5475 12.941 20.5677C13.3906 20.5839 13.8078 20.4664 14.1683 20.2558C14.1845 20.2477 14.2007 20.2396 14.2169 20.2275C14.2534 20.2032 14.2899 20.1789 14.3263 20.1505C14.3506 20.1343 14.379 20.114 14.4033 20.0978C14.4357 20.0735 14.464 20.0452 14.4964 20.0168C14.5167 19.9966 14.541 19.9804 14.5613 19.9601L14.5694 19.952C14.6058 19.9196 14.6382 19.8832 14.6706 19.8467C14.6868 19.8264 14.7071 19.8102 14.7273 19.79C14.7557 19.7576 14.78 19.7211 14.8083 19.6847C14.8286 19.6604 14.8488 19.6361 14.865 19.6077C14.8731 19.5956 14.8812 19.5794 14.8934 19.5632C15.0068 19.389 15.0959 19.2067 15.1607 19.0163C15.1729 18.9839 15.181 18.9475 15.1891 18.911C15.1972 18.8746 15.2093 18.8381 15.2174 18.8016C15.2255 18.7692 15.2296 18.7368 15.2337 18.7085C15.2418 18.668 15.2499 18.6234 15.2539 18.5829C15.2539 18.5546 15.2539 18.5222 15.258 18.4938C15.258 18.4492 15.2661 18.4006 15.2661 18.3561C15.2661 18.348 15.2661 18.3439 15.2661 18.3358V17.5095C15.2661 16.7318 15.8939 16.1039 16.6716 16.1039H17.4615C17.4615 16.1039 17.4736 16.1039 17.4777 16.1039C18.0286 16.108 18.5835 15.9136 19.0129 15.5126C19.3531 15.1966 19.5718 14.7996 19.6691 14.3824C19.6812 14.3257 19.6934 14.269 19.7015 14.2123H19.6853Z" fill="#00C4D6"/>
<path d="M13.0094 5.32929C14.2442 5.32929 15.2453 4.32823 15.2453 3.09336C15.2453 1.85848 14.2442 0.857422 13.0094 0.857422C11.7745 0.857422 10.7734 1.85848 10.7734 3.09336C10.7734 4.32823 11.7745 5.32929 13.0094 5.32929Z" fill="#00C4D6"/>
</g>
<path d="M31.1704 17.2328C30.2948 17.2328 29.519 17.0776 28.8429 16.7672C28.1668 16.4569 27.6348 16.0025 27.2469 15.404C26.87 14.7944 26.6816 14.0574 26.6816 13.1929V12.7772H28.4605V13.1929C28.4605 14.013 28.7043 14.6282 29.192 15.0382C29.6908 15.4483 30.3502 15.6534 31.1704 15.6534C32.0016 15.6534 32.6278 15.4816 33.049 15.138C33.4702 14.7833 33.6808 14.3289 33.6808 13.7747C33.6808 13.409 33.581 13.1097 33.3815 12.877C33.182 12.6442 32.8994 12.4614 32.5336 12.3284C32.1679 12.1843 31.7301 12.0513 31.2203 11.9294L30.6051 11.7797C29.8625 11.6024 29.2142 11.3863 28.66 11.1314C28.1169 10.8654 27.6958 10.5162 27.3965 10.084C27.0973 9.65175 26.9476 9.09758 26.9476 8.4215C26.9476 7.73433 27.1139 7.14692 27.4464 6.65925C27.79 6.17158 28.261 5.79475 28.8595 5.52875C29.458 5.26275 30.1618 5.12975 30.9709 5.12975C31.78 5.12975 32.5004 5.26829 33.1321 5.54537C33.775 5.82246 34.2793 6.23254 34.645 6.77562C35.0108 7.31871 35.1936 8.00033 35.1936 8.8205V9.419H33.4148V8.8205C33.4148 8.32175 33.3095 7.91721 33.0989 7.60688C32.8994 7.29654 32.6168 7.06933 32.251 6.92525C31.8853 6.78117 31.4585 6.70912 30.9709 6.70912C30.2615 6.70912 29.7074 6.85875 29.3084 7.158C28.9205 7.44617 28.7265 7.85071 28.7265 8.37162C28.7265 8.72629 28.8096 9.02 28.9759 9.25275C29.1532 9.47442 29.4081 9.65729 29.7406 9.80137C30.0731 9.94546 30.4888 10.0729 30.9875 10.1837L31.6026 10.3334C32.3563 10.4996 33.0213 10.7157 33.5976 10.9817C34.174 11.2367 34.6284 11.5858 34.9609 12.0291C35.2934 12.4725 35.4596 13.0432 35.4596 13.7415C35.4596 14.4397 35.2823 15.0493 34.9276 15.5702C34.584 16.0912 34.0908 16.5012 33.448 16.8005C32.8052 17.0887 32.046 17.2328 31.1704 17.2328ZM39.938 17.2328C39.3506 17.2328 38.8241 17.133 38.3586 16.9335C37.9042 16.734 37.5384 16.4403 37.2614 16.0524C36.9954 15.6645 36.8624 15.1934 36.8624 14.6392C36.8624 14.074 36.9954 13.6085 37.2614 13.2427C37.5384 12.8659 37.9097 12.5833 38.3752 12.3949C38.8518 12.2065 39.3894 12.1123 39.9879 12.1123H42.4816V11.5802C42.4816 11.1037 42.3375 10.7213 42.0494 10.4331C41.7612 10.145 41.3179 10.0009 40.7194 10.0009C40.1319 10.0009 39.6831 10.1394 39.3727 10.4165C39.0624 10.6936 38.8574 11.0538 38.7576 11.4971L37.1616 10.9817C37.2946 10.5384 37.5052 10.1394 37.7934 9.78475C38.0926 9.419 38.4861 9.12529 38.9737 8.90362C39.4614 8.68196 40.0488 8.57112 40.736 8.57112C41.8 8.57112 42.6368 8.84267 43.2464 9.38575C43.8559 9.92883 44.1607 10.6991 44.1607 11.6966V15.0715C44.1607 15.404 44.3159 15.5702 44.6262 15.5702H45.3245V17H44.0444C43.6564 17 43.3406 16.9002 43.0967 16.7007C42.8529 16.5012 42.731 16.2297 42.731 15.8861V15.8362H42.4816C42.3929 16.0025 42.2599 16.1965 42.0826 16.4181C41.9053 16.6398 41.6448 16.8337 41.3012 17C40.9577 17.1552 40.5032 17.2328 39.938 17.2328ZM40.1874 15.8196C40.8745 15.8196 41.4287 15.6257 41.8499 15.2377C42.271 14.8387 42.4816 14.2957 42.4816 13.6085V13.4422H40.0876C39.6332 13.4422 39.2674 13.542 38.9904 13.7415C38.7133 13.9299 38.5747 14.2125 38.5747 14.5894C38.5747 14.9662 38.7188 15.2655 39.007 15.4871C39.2952 15.7088 39.6886 15.8196 40.1874 15.8196ZM47.9008 17V10.2502H45.6066V8.80387H47.9008V7.00837C47.9008 6.50962 48.0505 6.11062 48.3497 5.81137C48.649 5.51212 49.048 5.3625 49.5467 5.3625H51.6581V6.80887H50.0953C49.7739 6.80887 49.6132 6.97512 49.6132 7.30762V8.80387H51.974V10.2502H49.6132V17H47.9008ZM57.1434 17.2328C56.3122 17.2328 55.5862 17.061 54.9656 16.7174C54.3449 16.3627 53.8572 15.8695 53.5026 15.2377C53.159 14.5949 52.9872 13.8523 52.9872 13.01V12.8105C52.9872 11.9571 53.159 11.2145 53.5026 10.5827C53.8461 9.93992 54.3227 9.44671 54.9323 9.10312C55.553 8.74846 56.2678 8.57112 57.0769 8.57112C57.8638 8.57112 58.551 8.74846 59.1384 9.10312C59.7369 9.44671 60.2024 9.92883 60.5349 10.5495C60.8674 11.1702 61.0337 11.8961 61.0337 12.7274V13.3757H54.7328C54.755 14.0962 54.9933 14.6725 55.4477 15.1047C55.9132 15.5259 56.4895 15.7365 57.1767 15.7365C57.8195 15.7365 58.3016 15.5924 58.6231 15.3042C58.9556 15.0161 59.2105 14.6836 59.3878 14.3067L60.8009 15.0382C60.6458 15.3486 60.4186 15.6755 60.1193 16.0191C59.8311 16.3627 59.4488 16.6509 58.9722 16.8836C58.4956 17.1164 57.886 17.2328 57.1434 17.2328ZM54.7494 12.0624H59.2881C59.2437 11.4417 59.0221 10.9596 58.6231 10.616C58.2241 10.2613 57.7031 10.084 57.0603 10.084C56.4175 10.084 55.891 10.2613 55.4809 10.616C55.0819 10.9596 54.8381 11.4417 54.7494 12.0624ZM65.8214 17V6.99175H62.247V5.3625H71.1913V6.99175H67.6169V17H65.8214ZM72.5823 20.325V18.8288H77.1542C77.4645 18.8288 77.6197 18.6625 77.6197 18.33V15.803H77.3537C77.254 16.0247 77.0988 16.2408 76.8882 16.4514C76.6887 16.6509 76.4172 16.8171 76.0736 16.9501C75.73 17.0831 75.2978 17.1496 74.7768 17.1496C74.1562 17.1496 73.602 17.0111 73.1143 16.734C72.6267 16.4569 72.2443 16.0635 71.9672 15.5536C71.6901 15.0438 71.5516 14.4397 71.5516 13.7415V8.80387H73.264V13.6085C73.264 14.3178 73.4413 14.8443 73.796 15.1879C74.1506 15.5204 74.6438 15.6866 75.2756 15.6866C75.9738 15.6866 76.5335 15.4539 76.9547 14.9884C77.387 14.5229 77.6031 13.8468 77.6031 12.9601V8.80387H79.3155V18.6791C79.3155 19.1779 79.1658 19.5769 78.8666 19.8761C78.5784 20.1754 78.1794 20.325 77.6696 20.325H72.5823ZM81.8468 20.325V8.80387H83.5259V9.98425H83.7919C84.0025 9.6185 84.3183 9.29154 84.7395 9.00337C85.1718 8.71521 85.7869 8.57112 86.5849 8.57112C87.272 8.57112 87.8983 8.73737 88.4635 9.06987C89.0398 9.40237 89.4998 9.8845 89.8434 10.5162C90.198 11.1369 90.3754 11.8906 90.3754 12.7772V13.0266C90.3754 13.9133 90.2036 14.6725 89.86 15.3042C89.5164 15.9249 89.0565 16.4015 88.4801 16.734C87.9038 17.0665 87.272 17.2328 86.5849 17.2328C86.0529 17.2328 85.604 17.1663 85.2383 17.0333C84.8725 16.9002 84.5788 16.734 84.3571 16.5345C84.1355 16.3239 83.9581 16.1078 83.8251 15.8861H83.5591V20.325H81.8468ZM86.0861 15.7365C86.8398 15.7365 87.4549 15.4982 87.9315 15.0216C88.4081 14.545 88.6464 13.8634 88.6464 12.9767V12.8271C88.6464 11.9515 88.4025 11.2755 87.9149 10.7989C87.4383 10.3223 86.8287 10.084 86.0861 10.084C85.3546 10.084 84.745 10.3223 84.2574 10.7989C83.7808 11.2755 83.5425 11.9515 83.5425 12.8271V12.9767C83.5425 13.8634 83.7808 14.545 84.2574 15.0216C84.745 15.4982 85.3546 15.7365 86.0861 15.7365ZM96.2544 17.2328C95.4231 17.2328 94.6972 17.061 94.0765 16.7174C93.4559 16.3627 92.9682 15.8695 92.6135 15.2377C92.2699 14.5949 92.0981 13.8523 92.0981 13.01V12.8105C92.0981 11.9571 92.2699 11.2145 92.6135 10.5827C92.9571 9.93992 93.4337 9.44671 94.0433 9.10312C94.6639 8.74846 95.3788 8.57112 96.1879 8.57112C96.9748 8.57112 97.662 8.74846 98.2494 9.10312C98.8479 9.44671 99.3134 9.92883 99.6459 10.5495C99.9784 11.1702 100.145 11.8961 100.145 12.7274V13.3757H93.8438C93.8659 14.0962 94.1042 14.6725 94.5586 15.1047C95.0241 15.5259 95.6005 15.7365 96.2876 15.7365C96.9305 15.7365 97.4126 15.5924 97.734 15.3042C98.0665 15.0161 98.3214 14.6836 98.4988 14.3067L99.9119 15.0382C99.7567 15.3486 99.5295 15.6755 99.2303 16.0191C98.9421 16.3627 98.5597 16.6509 98.0831 16.8836C97.6066 17.1164 96.997 17.2328 96.2544 17.2328ZM93.8604 12.0624H98.399C98.3547 11.4417 98.133 10.9596 97.734 10.616C97.335 10.2613 96.8141 10.084 96.1713 10.084C95.5284 10.084 95.002 10.2613 94.5919 10.616C94.1929 10.9596 93.9491 11.4417 93.8604 12.0624Z" fill="black"/>
<path d="M110.057 16.5V7.77273H113.006C113.69 7.77273 114.25 7.89631 114.685 8.14347C115.122 8.38778 115.446 8.71875 115.656 9.13636C115.866 9.55398 115.972 10.0199 115.972 10.5341C115.972 11.0483 115.866 11.5156 115.656 11.9361C115.449 12.3565 115.128 12.6918 114.693 12.9418C114.259 13.1889 113.702 13.3125 113.023 13.3125H110.909V12.375H112.989C113.457 12.375 113.834 12.294 114.118 12.1321C114.402 11.9702 114.608 11.7514 114.736 11.4759C114.866 11.1974 114.932 10.8835 114.932 10.5341C114.932 10.1847 114.866 9.87216 114.736 9.59659C114.608 9.32102 114.401 9.10511 114.114 8.94886C113.827 8.78977 113.446 8.71023 112.972 8.71023H111.114V16.5H110.057ZM120.126 16.6364C119.536 16.6364 119.017 16.4957 118.571 16.2145C118.128 15.9332 117.781 15.5398 117.531 15.0341C117.284 14.5284 117.161 13.9375 117.161 13.2614C117.161 12.5795 117.284 11.9844 117.531 11.4759C117.781 10.9673 118.128 10.5724 118.571 10.2912C119.017 10.0099 119.536 9.86932 120.126 9.86932C120.717 9.86932 121.234 10.0099 121.678 10.2912C122.124 10.5724 122.47 10.9673 122.717 11.4759C122.967 11.9844 123.092 12.5795 123.092 13.2614C123.092 13.9375 122.967 14.5284 122.717 15.0341C122.47 15.5398 122.124 15.9332 121.678 16.2145C121.234 16.4957 120.717 16.6364 120.126 16.6364ZM120.126 15.733C120.575 15.733 120.945 15.6179 121.234 15.3878C121.524 15.1577 121.739 14.8551 121.878 14.4801C122.017 14.1051 122.087 13.6989 122.087 13.2614C122.087 12.8239 122.017 12.4162 121.878 12.0384C121.739 11.6605 121.524 11.3551 121.234 11.1222C120.945 10.8892 120.575 10.7727 120.126 10.7727C119.678 10.7727 119.308 10.8892 119.018 11.1222C118.729 11.3551 118.514 11.6605 118.375 12.0384C118.236 12.4162 118.166 12.8239 118.166 13.2614C118.166 13.6989 118.236 14.1051 118.375 14.4801C118.514 14.8551 118.729 15.1577 119.018 15.3878C119.308 15.6179 119.678 15.733 120.126 15.733ZM125.888 16.5L123.893 9.95455H124.95L126.365 14.9659H126.433L127.831 9.95455H128.905L130.286 14.9489H130.354L131.768 9.95455H132.825L130.831 16.5H129.842L128.411 11.4716H128.308L126.876 16.5H125.888ZM136.676 16.6364C136.046 16.6364 135.502 16.4972 135.044 16.2188C134.59 15.9375 134.239 15.5455 133.992 15.0426C133.748 14.5369 133.625 13.9489 133.625 13.2784C133.625 12.608 133.748 12.017 133.992 11.5057C134.239 10.9915 134.583 10.5909 135.023 10.304C135.466 10.0142 135.983 9.86932 136.574 9.86932C136.915 9.86932 137.252 9.92614 137.584 10.0398C137.917 10.1534 138.219 10.3381 138.492 10.5938C138.765 10.8466 138.982 11.1818 139.144 11.5994C139.306 12.017 139.387 12.5312 139.387 13.142V13.5682H134.341V12.6989H138.364C138.364 12.3295 138.29 12 138.142 11.7102C137.998 11.4205 137.79 11.1918 137.52 11.0241C137.253 10.8565 136.938 10.7727 136.574 10.7727C136.174 10.7727 135.827 10.8722 135.534 11.071C135.245 11.267 135.022 11.5227 134.865 11.8381C134.709 12.1534 134.631 12.4915 134.631 12.8523V13.4318C134.631 13.9261 134.716 14.3452 134.887 14.6889C135.06 15.0298 135.3 15.2898 135.607 15.4688C135.914 15.6449 136.27 15.733 136.676 15.733C136.941 15.733 137.179 15.696 137.392 15.6222C137.608 15.5455 137.794 15.4318 137.951 15.2812C138.107 15.1278 138.228 14.9375 138.313 14.7102L139.284 14.983C139.182 15.3125 139.01 15.6023 138.769 15.8523C138.527 16.0994 138.229 16.2926 137.874 16.4318C137.519 16.5682 137.12 16.6364 136.676 16.6364ZM140.917 16.5V9.95455H141.888V10.9432H141.956C142.076 10.6193 142.292 10.3565 142.604 10.1548C142.917 9.95312 143.269 9.85227 143.661 9.85227C143.735 9.85227 143.827 9.85369 143.938 9.85653C144.049 9.85937 144.132 9.86364 144.189 9.86932V10.892C144.155 10.8835 144.077 10.8707 143.955 10.8537C143.836 10.8338 143.709 10.8239 143.576 10.8239C143.257 10.8239 142.973 10.8906 142.723 11.0241C142.476 11.1548 142.28 11.3366 142.135 11.5696C141.993 11.7997 141.922 12.0625 141.922 12.358V16.5H140.917ZM147.926 16.6364C147.296 16.6364 146.752 16.4972 146.294 16.2188C145.84 15.9375 145.489 15.5455 145.242 15.0426C144.998 14.5369 144.875 13.9489 144.875 13.2784C144.875 12.608 144.998 12.017 145.242 11.5057C145.489 10.9915 145.833 10.5909 146.273 10.304C146.716 10.0142 147.233 9.86932 147.824 9.86932C148.165 9.86932 148.502 9.92614 148.834 10.0398C149.167 10.1534 149.469 10.3381 149.742 10.5938C150.015 10.8466 150.232 11.1818 150.394 11.5994C150.556 12.017 150.637 12.5312 150.637 13.142V13.5682H145.591V12.6989H149.614C149.614 12.3295 149.54 12 149.392 11.7102C149.248 11.4205 149.04 11.1918 148.77 11.0241C148.503 10.8565 148.188 10.7727 147.824 10.7727C147.424 10.7727 147.077 10.8722 146.784 11.071C146.495 11.267 146.272 11.5227 146.115 11.8381C145.959 12.1534 145.881 12.4915 145.881 12.8523V13.4318C145.881 13.9261 145.966 14.3452 146.137 14.6889C146.31 15.0298 146.55 15.2898 146.857 15.4688C147.164 15.6449 147.52 15.733 147.926 15.733C148.191 15.733 148.429 15.696 148.642 15.6222C148.858 15.5455 149.044 15.4318 149.201 15.2812C149.357 15.1278 149.478 14.9375 149.563 14.7102L150.534 14.983C150.432 15.3125 150.26 15.6023 150.019 15.8523C149.777 16.0994 149.479 16.2926 149.124 16.4318C148.769 16.5682 148.37 16.6364 147.926 16.6364ZM154.638 16.6364C154.093 16.6364 153.611 16.4986 153.194 16.223C152.776 15.9446 152.449 15.5526 152.213 15.0469C151.978 14.5384 151.86 13.9375 151.86 13.2443C151.86 12.5568 151.978 11.9602 152.213 11.4545C152.449 10.9489 152.777 10.5582 153.198 10.2827C153.618 10.0071 154.104 9.86932 154.655 9.86932C155.081 9.86932 155.418 9.94034 155.665 10.0824C155.915 10.2216 156.105 10.3807 156.236 10.5597C156.37 10.7358 156.473 10.8807 156.547 10.9943H156.632V7.77273H157.638V16.5H156.667V15.4943H156.547C156.473 15.6136 156.368 15.7642 156.232 15.946C156.096 16.125 155.901 16.2855 155.648 16.4276C155.395 16.5668 155.059 16.6364 154.638 16.6364ZM154.775 15.733C155.178 15.733 155.519 15.6278 155.797 15.4176C156.076 15.2045 156.287 14.9105 156.432 14.5355C156.577 14.1577 156.65 13.7216 156.65 13.2273C156.65 12.7386 156.578 12.3111 156.436 11.9446C156.294 11.5753 156.084 11.2884 155.806 11.0838C155.527 10.8764 155.184 10.7727 154.775 10.7727C154.348 10.7727 153.993 10.8821 153.709 11.1009C153.428 11.3168 153.216 11.6108 153.074 11.983C152.935 12.3523 152.865 12.767 152.865 13.2273C152.865 13.6932 152.936 14.1165 153.078 14.4972C153.223 14.875 153.436 15.1761 153.718 15.4006C154.002 15.6222 154.354 15.733 154.775 15.733ZM163.131 16.5V7.77273H164.137V10.9943H164.222C164.296 10.8807 164.398 10.7358 164.529 10.5597C164.662 10.3807 164.853 10.2216 165.1 10.0824C165.35 9.94034 165.688 9.86932 166.114 9.86932C166.665 9.86932 167.151 10.0071 167.571 10.2827C167.992 10.5582 168.32 10.9489 168.556 11.4545C168.792 11.9602 168.909 12.5568 168.909 13.2443C168.909 13.9375 168.792 14.5384 168.556 15.0469C168.32 15.5526 167.993 15.9446 167.576 16.223C167.158 16.4986 166.676 16.6364 166.131 16.6364C165.711 16.6364 165.374 16.5668 165.121 16.4276C164.868 16.2855 164.674 16.125 164.537 15.946C164.401 15.7642 164.296 15.6136 164.222 15.4943H164.103V16.5H163.131ZM164.12 13.2273C164.12 13.7216 164.192 14.1577 164.337 14.5355C164.482 14.9105 164.694 15.2045 164.972 15.4176C165.25 15.6278 165.591 15.733 165.995 15.733C166.415 15.733 166.766 15.6222 167.047 15.4006C167.331 15.1761 167.544 14.875 167.686 14.4972C167.831 14.1165 167.904 13.6932 167.904 13.2273C167.904 12.767 167.833 12.3523 167.691 11.983C167.551 11.6108 167.34 11.3168 167.056 11.1009C166.775 10.8821 166.421 10.7727 165.995 10.7727C165.586 10.7727 165.242 10.8764 164.963 11.0838C164.685 11.2884 164.475 11.5753 164.333 11.9446C164.191 12.3111 164.12 12.7386 164.12 13.2273ZM170.861 18.9545C170.691 18.9545 170.539 18.9403 170.405 18.9119C170.272 18.8864 170.179 18.8608 170.128 18.8352L170.384 17.9489C170.628 18.0114 170.844 18.0341 171.032 18.017C171.219 18 171.385 17.9162 171.53 17.7656C171.678 17.6179 171.813 17.3778 171.935 17.0455L172.123 16.5341L169.702 9.95455H170.793L172.6 15.1705H172.668L174.475 9.95455H175.566L172.787 17.4545C172.662 17.7926 172.507 18.0724 172.323 18.294C172.138 18.5185 171.924 18.6847 171.679 18.7926C171.438 18.9006 171.165 18.9545 170.861 18.9545ZM187.427 10.5H186.37C186.308 10.196 186.199 9.92898 186.042 9.69886C185.889 9.46875 185.701 9.27557 185.48 9.11932C185.261 8.96023 185.018 8.84091 184.751 8.76136C184.484 8.68182 184.206 8.64205 183.916 8.64205C183.387 8.64205 182.909 8.77557 182.48 9.04261C182.054 9.30966 181.714 9.70312 181.461 10.223C181.211 10.7429 181.086 11.3807 181.086 12.1364C181.086 12.892 181.211 13.5298 181.461 14.0497C181.714 14.5696 182.054 14.9631 182.48 15.2301C182.909 15.4972 183.387 15.6307 183.916 15.6307C184.206 15.6307 184.484 15.5909 184.751 15.5114C185.018 15.4318 185.261 15.3139 185.48 15.1577C185.701 14.9986 185.889 14.804 186.042 14.5739C186.199 14.3409 186.308 14.0739 186.37 13.7727H187.427C187.348 14.2187 187.203 14.6179 186.993 14.9702C186.782 15.3224 186.521 15.6222 186.208 15.8693C185.896 16.1136 185.545 16.2997 185.156 16.4276C184.77 16.5554 184.356 16.6193 183.916 16.6193C183.172 16.6193 182.51 16.4375 181.93 16.0739C181.35 15.7102 180.895 15.1932 180.562 14.5227C180.23 13.8523 180.064 13.0568 180.064 12.1364C180.064 11.2159 180.23 10.4205 180.562 9.75C180.895 9.07955 181.35 8.5625 181.93 8.19886C182.51 7.83523 183.172 7.65341 183.916 7.65341C184.356 7.65341 184.77 7.71733 185.156 7.84517C185.545 7.97301 185.896 8.16051 186.208 8.40767C186.521 8.65199 186.782 8.95028 186.993 9.30256C187.203 9.65199 187.348 10.0511 187.427 10.5ZM189.646 18.9545C189.476 18.9545 189.324 18.9403 189.19 18.9119C189.057 18.8864 188.964 18.8608 188.913 18.8352L189.169 17.9489C189.413 18.0114 189.629 18.0341 189.817 18.017C190.004 18 190.17 17.9162 190.315 17.7656C190.463 17.6179 190.598 17.3778 190.72 17.0455L190.908 16.5341L188.487 9.95455H189.578L191.385 15.1705H191.453L193.26 9.95455H194.351L191.572 17.4545C191.447 17.7926 191.293 18.0724 191.108 18.294C190.923 18.5185 190.709 18.6847 190.464 18.7926C190.223 18.9006 189.95 18.9545 189.646 18.9545ZM198.188 16.6364C197.558 16.6364 197.013 16.4972 196.556 16.2188C196.102 15.9375 195.751 15.5455 195.504 15.0426C195.259 14.5369 195.137 13.9489 195.137 13.2784C195.137 12.608 195.259 12.017 195.504 11.5057C195.751 10.9915 196.094 10.5909 196.535 10.304C196.978 10.0142 197.495 9.86932 198.086 9.86932C198.427 9.86932 198.763 9.92614 199.096 10.0398C199.428 10.1534 199.731 10.3381 200.004 10.5938C200.276 10.8466 200.494 11.1818 200.656 11.5994C200.817 12.017 200.898 12.5312 200.898 13.142V13.5682H195.853V12.6989H199.876C199.876 12.3295 199.802 12 199.654 11.7102C199.509 11.4205 199.302 11.1918 199.032 11.0241C198.765 10.8565 198.45 10.7727 198.086 10.7727C197.685 10.7727 197.339 10.8722 197.046 11.071C196.756 11.267 196.533 11.5227 196.377 11.8381C196.221 12.1534 196.143 12.4915 196.143 12.8523V13.4318C196.143 13.9261 196.228 14.3452 196.398 14.6889C196.572 15.0298 196.812 15.2898 197.119 15.4688C197.425 15.6449 197.782 15.733 198.188 15.733C198.452 15.733 198.691 15.696 198.904 15.6222C199.12 15.5455 199.306 15.4318 199.462 15.2812C199.619 15.1278 199.739 14.9375 199.825 14.7102L200.796 14.983C200.694 15.3125 200.522 15.6023 200.281 15.8523C200.039 16.0994 199.741 16.2926 199.386 16.4318C199.031 16.5682 198.631 16.6364 198.188 16.6364ZM202.428 16.5V9.95455H203.4V10.9432H203.468C203.587 10.6193 203.803 10.3565 204.116 10.1548C204.428 9.95312 204.781 9.85227 205.173 9.85227C205.246 9.85227 205.339 9.85369 205.45 9.85653C205.56 9.85937 205.644 9.86364 205.701 9.86932V10.892C205.667 10.8835 205.589 10.8707 205.467 10.8537C205.347 10.8338 205.221 10.8239 205.087 10.8239C204.769 10.8239 204.485 10.8906 204.235 11.0241C203.988 11.1548 203.792 11.3366 203.647 11.5696C203.505 11.7997 203.434 12.0625 203.434 12.358V16.5H202.428ZM208.819 16.6534C208.404 16.6534 208.028 16.5753 207.69 16.419C207.352 16.2599 207.083 16.0312 206.885 15.733C206.686 15.4318 206.586 15.0682 206.586 14.642C206.586 14.267 206.66 13.9631 206.808 13.7301C206.956 13.4943 207.153 13.3097 207.4 13.1761C207.647 13.0426 207.92 12.9432 208.218 12.8778C208.52 12.8097 208.822 12.7557 209.126 12.7159C209.524 12.6648 209.846 12.6264 210.093 12.6009C210.343 12.5724 210.525 12.5256 210.639 12.4602C210.755 12.3949 210.814 12.2812 210.814 12.1193V12.0852C210.814 11.6648 210.699 11.3381 210.468 11.1051C210.241 10.8722 209.896 10.7557 209.433 10.7557C208.953 10.7557 208.576 10.8608 208.304 11.071C208.031 11.2812 207.839 11.5057 207.728 11.7443L206.774 11.4034C206.944 11.0057 207.172 10.696 207.456 10.4744C207.743 10.25 208.055 10.0937 208.393 10.0057C208.734 9.91477 209.069 9.86932 209.399 9.86932C209.609 9.86932 209.85 9.89489 210.123 9.94602C210.399 9.99432 210.664 10.0952 210.92 10.2486C211.179 10.402 211.393 10.6335 211.564 10.9432C211.734 11.2528 211.819 11.6676 211.819 12.1875V16.5H210.814V15.6136H210.762C210.694 15.7557 210.581 15.9077 210.422 16.0696C210.262 16.2315 210.051 16.3693 209.787 16.483C209.522 16.5966 209.2 16.6534 208.819 16.6534ZM208.973 15.75C209.37 15.75 209.706 15.6719 209.978 15.5156C210.254 15.3594 210.461 15.1577 210.6 14.9105C210.743 14.6634 210.814 14.4034 210.814 14.1307V13.2102C210.771 13.2614 210.677 13.3082 210.532 13.3509C210.39 13.3906 210.225 13.4261 210.038 13.4574C209.853 13.4858 209.673 13.5114 209.497 13.5341C209.324 13.554 209.183 13.571 209.075 13.5852C208.814 13.6193 208.569 13.6747 208.342 13.7514C208.118 13.8253 207.936 13.9375 207.797 14.0881C207.66 14.2358 207.592 14.4375 207.592 14.6932C207.592 15.0426 207.721 15.3068 207.98 15.4858C208.241 15.6619 208.572 15.75 208.973 15.75ZM217.166 16.5V7.77273H218.223V15.5625H222.28V16.5H217.166ZM225.706 16.6534C225.291 16.6534 224.915 16.5753 224.577 16.419C224.239 16.2599 223.97 16.0312 223.771 15.733C223.572 15.4318 223.473 15.0682 223.473 14.642C223.473 14.267 223.547 13.9631 223.695 13.7301C223.842 13.4943 224.04 13.3097 224.287 13.1761C224.534 13.0426 224.807 12.9432 225.105 12.8778C225.406 12.8097 225.709 12.7557 226.013 12.7159C226.411 12.6648 226.733 12.6264 226.98 12.6009C227.23 12.5724 227.412 12.5256 227.526 12.4602C227.642 12.3949 227.7 12.2812 227.7 12.1193V12.0852C227.7 11.6648 227.585 11.3381 227.355 11.1051C227.128 10.8722 226.783 10.7557 226.32 10.7557C225.839 10.7557 225.463 10.8608 225.19 11.071C224.918 11.2812 224.726 11.5057 224.615 11.7443L223.661 11.4034C223.831 11.0057 224.058 10.696 224.342 10.4744C224.629 10.25 224.942 10.0937 225.28 10.0057C225.621 9.91477 225.956 9.86932 226.286 9.86932C226.496 9.86932 226.737 9.89489 227.01 9.94602C227.286 9.99432 227.551 10.0952 227.807 10.2486C228.065 10.402 228.28 10.6335 228.45 10.9432C228.621 11.2528 228.706 11.6676 228.706 12.1875V16.5H227.7V15.6136H227.649C227.581 15.7557 227.467 15.9077 227.308 16.0696C227.149 16.2315 226.938 16.3693 226.673 16.483C226.409 16.5966 226.087 16.6534 225.706 16.6534ZM225.859 15.75C226.257 15.75 226.592 15.6719 226.865 15.5156C227.141 15.3594 227.348 15.1577 227.487 14.9105C227.629 14.6634 227.7 14.4034 227.7 14.1307V13.2102C227.658 13.2614 227.564 13.3082 227.419 13.3509C227.277 13.3906 227.112 13.4261 226.925 13.4574C226.74 13.4858 226.56 13.5114 226.384 13.5341C226.21 13.554 226.07 13.571 225.962 13.5852C225.7 13.6193 225.456 13.6747 225.229 13.7514C225.004 13.8253 224.822 13.9375 224.683 14.0881C224.547 14.2358 224.479 14.4375 224.479 14.6932C224.479 15.0426 224.608 15.3068 224.866 15.4858C225.128 15.6619 225.459 15.75 225.859 15.75ZM230.678 16.5V7.77273H231.684V10.9943H231.769C231.843 10.8807 231.945 10.7358 232.076 10.5597C232.209 10.3807 232.4 10.2216 232.647 10.0824C232.897 9.94034 233.235 9.86932 233.661 9.86932C234.212 9.86932 234.698 10.0071 235.118 10.2827C235.539 10.5582 235.867 10.9489 236.103 11.4545C236.338 11.9602 236.456 12.5568 236.456 13.2443C236.456 13.9375 236.338 14.5384 236.103 15.0469C235.867 15.5526 235.54 15.9446 235.123 16.223C234.705 16.4986 234.223 16.6364 233.678 16.6364C233.257 16.6364 232.921 16.5668 232.668 16.4276C232.415 16.2855 232.221 16.125 232.084 15.946C231.948 15.7642 231.843 15.6136 231.769 15.4943H231.65V16.5H230.678ZM231.667 13.2273C231.667 13.7216 231.739 14.1577 231.884 14.5355C232.029 14.9105 232.24 15.2045 232.519 15.4176C232.797 15.6278 233.138 15.733 233.542 15.733C233.962 15.733 234.313 15.6222 234.594 15.4006C234.878 15.1761 235.091 14.875 235.233 14.4972C235.378 14.1165 235.451 13.6932 235.451 13.2273C235.451 12.767 235.38 12.3523 235.238 11.983C235.098 11.6108 234.887 11.3168 234.603 11.1009C234.321 10.8821 233.968 10.7727 233.542 10.7727C233.132 10.7727 232.789 10.8764 232.51 11.0838C232.232 11.2884 232.022 11.5753 231.88 11.9446C231.738 12.3111 231.667 12.7386 231.667 13.2273ZM242.631 11.4205L241.728 11.6761C241.671 11.5256 241.587 11.3793 241.476 11.2372C241.368 11.0923 241.221 10.973 241.033 10.8793C240.846 10.7855 240.605 10.7386 240.313 10.7386C239.912 10.7386 239.578 10.831 239.311 11.0156C239.047 11.1974 238.915 11.429 238.915 11.7102C238.915 11.9602 239.006 12.1577 239.188 12.3026C239.37 12.4474 239.654 12.5682 240.04 12.6648L241.012 12.9034C241.597 13.0455 242.033 13.2628 242.32 13.5554C242.607 13.8452 242.75 14.2187 242.75 14.6761C242.75 15.0511 242.642 15.3864 242.426 15.6818C242.213 15.9773 241.915 16.2102 241.532 16.3807C241.148 16.5511 240.702 16.6364 240.194 16.6364C239.526 16.6364 238.973 16.4915 238.536 16.2017C238.098 15.9119 237.821 15.4886 237.705 14.9318L238.659 14.6932C238.75 15.0455 238.922 15.3097 239.175 15.4858C239.431 15.6619 239.765 15.75 240.176 15.75C240.645 15.75 241.017 15.6506 241.293 15.4517C241.571 15.25 241.711 15.0085 241.711 14.7273C241.711 14.5 241.631 14.3097 241.472 14.1562C241.313 14 241.069 13.8835 240.739 13.8068L239.648 13.5511C239.049 13.4091 238.608 13.1889 238.327 12.8906C238.049 12.5895 237.909 12.2131 237.909 11.7614C237.909 11.392 238.013 11.0653 238.221 10.7812C238.431 10.4972 238.716 10.2741 239.077 10.1122C239.441 9.95028 239.853 9.86932 240.313 9.86932C240.961 9.86932 241.469 10.0114 241.838 10.2955C242.211 10.5795 242.475 10.9545 242.631 11.4205Z" fill="#7B7B7B"/>
<defs>
<clipPath id="clip0_210_1471">
<rect width="19.7143" height="19.7143" fill="white" transform="translate(0 0.857422)"/>
</clipPath>
</defs>
</svg>
