<svg width="24" height="24" viewBox="0 0 24 24" fill="none" xmlns="http://www.w3.org/2000/svg">
    <path d="M18.6089 10.054C18.3548 9.38112 17.9989 8.75122 17.5537 8.18633L16.298 9.01993C16.295 9.04092 16.295 9.06224 16.298 9.08324C16.6699 9.54235 16.9494 10.0691 17.1211 10.6344C17.2992 11.1974 17.3882 11.7849 17.3849 12.3754C17.3891 13.0911 17.2511 13.8005 16.9788 14.4624C16.7065 15.1243 16.3055 15.7255 15.7989 16.2311C15.2923 16.7367 14.6903 17.1366 14.0279 17.4076C13.3655 17.6786 12.6558 17.8152 11.9401 17.8096C11.2244 17.8152 10.5148 17.6786 9.85235 17.4076C9.18992 17.1366 8.58794 16.7367 8.08136 16.2311C7.57479 15.7255 7.17372 15.1243 6.90146 14.4624C6.6292 13.8005 6.49116 13.0911 6.49538 12.3754C6.49627 11.7913 6.58885 11.2109 6.76973 10.6555C6.95117 10.1049 7.22211 9.58793 7.57167 9.12545L7.63498 9.01993L6.34765 8.17578C5.89562 8.74385 5.53921 9.38181 5.29247 10.0646C5.0673 10.8132 4.97097 11.5946 5.00757 12.3754C4.99486 13.3297 5.1855 14.2757 5.56682 15.1506C5.91711 15.9772 6.4221 16.7293 7.05463 17.3664C7.68425 17.9777 8.42111 18.4678 9.22831 18.812C10.0921 19.1813 11.0218 19.3716 11.9612 19.3716C12.9007 19.3716 13.8303 19.1813 14.6942 18.812C15.5205 18.4566 16.2724 17.9482 16.9101 17.3137C17.5586 16.699 18.0818 15.9644 18.4506 15.1506C18.8213 14.2913 19.0082 13.364 18.9993 12.4282C19.0108 11.6199 18.8786 10.816 18.6089 10.054Z" fill="#7B7B7B"/>
    <path d="M12.7757 5H11.2246V12.0486H12.7757V5Z" fill="#7B7B7B"/>
</svg>
